<svg xmlns="http://www.w3.org/2000/svg" xmlns:xlink="http://www.w3.org/1999/xlink" width="1920" height="738" viewBox="0 0 1920 738">
    <defs>
        <linearGradient id="prefix__c" x1="50%" x2="38.639%" y1="88.794%" y2="2.468%">
            <stop offset="0%" stop-color="#016FF5"/>
            <stop offset="100%" stop-color="#25BF6F" stop-opacity=".296"/>
            <stop offset="100%" stop-color="#26C26A"/>
        </linearGradient>
        <linearGradient id="prefix__d" x1="137.477%" x2="40.781%" y1="177.71%" y2="-14.791%">
            <stop offset="0%" stop-color="#016FF5"/>
            <stop offset="67.36%" stop-color="#19A59B" stop-opacity=".526"/>
            <stop offset="100%" stop-color="#25BF6F" stop-opacity=".296"/>
            <stop offset="100%" stop-color="#26C26A"/>
        </linearGradient>
        <linearGradient id="prefix__e" x1="77.817%" x2="57.728%" y1="132.041%" y2="-64.449%">
            <stop offset="0%" stop-color="#016FF5"/>
            <stop offset="67.36%" stop-color="#19A59B" stop-opacity=".526"/>
            <stop offset="100%" stop-color="#25BF6F" stop-opacity=".296"/>
            <stop offset="100%" stop-color="#26C26A"/>
        </linearGradient>
        <linearGradient id="prefix__f" x1="81.74%" x2="57.728%" y1="129.113%" y2="-64.449%">
            <stop offset="0%" stop-color="#016FF5"/>
            <stop offset="94.453%" stop-color="#19A59B" stop-opacity=".526"/>
            <stop offset="100%" stop-color="#25BF6F" stop-opacity=".296"/>
            <stop offset="100%" stop-color="#26C26A"/>
        </linearGradient>
        <linearGradient id="prefix__g" x1="77.817%" x2="9.368%" y1="132.041%" y2="-122.097%">
            <stop offset="0%" stop-color="#016FF5"/>
            <stop offset="67.36%" stop-color="#19A59B" stop-opacity=".526"/>
            <stop offset="100%" stop-color="#25BF6F" stop-opacity=".296"/>
            <stop offset="100%" stop-color="#26C26A"/>
        </linearGradient>
        <linearGradient id="prefix__h" x1="90.26%" x2="57.728%" y1="186.253%" y2="-64.449%">
            <stop offset="0%" stop-color="#016FF5"/>
            <stop offset="67.36%" stop-color="#19A59B" stop-opacity=".526"/>
            <stop offset="100%" stop-color="#25BF6F" stop-opacity=".296"/>
            <stop offset="100%" stop-color="#26C26A"/>
        </linearGradient>
        <linearGradient id="prefix__i" x1="107.052%" x2="57.728%" y1="222.489%" y2="-64.449%">
            <stop offset="0%" stop-color="#016FF5"/>
            <stop offset="67.36%" stop-color="#19A59B" stop-opacity=".526"/>
            <stop offset="100%" stop-color="#25BF6F" stop-opacity=".296"/>
            <stop offset="100%" stop-color="#26C26A"/>
        </linearGradient>
        <linearGradient id="prefix__j" x1="77.04%" x2="57.728%" y1="187.191%" y2="-64.449%">
            <stop offset="0%" stop-color="#016FF5"/>
            <stop offset="90.013%" stop-color="#19A59B" stop-opacity=".526"/>
            <stop offset="100%" stop-color="#25BF6F" stop-opacity=".296"/>
            <stop offset="100%" stop-color="#26C26A"/>
        </linearGradient>
        <linearGradient id="prefix__k" x1="110.995%" x2="57.728%" y1="193.039%" y2="-64.449%">
            <stop offset="0%" stop-color="#016FF5"/>
            <stop offset="67.36%" stop-color="#19A59B" stop-opacity=".526"/>
            <stop offset="100%" stop-color="#25BF6F" stop-opacity=".296"/>
            <stop offset="100%" stop-color="#26C26A"/>
        </linearGradient>
        <linearGradient id="prefix__l" x1="71.712%" x2="57.728%" y1="230.693%" y2="-64.449%">
            <stop offset="0%" stop-color="#016FF5"/>
            <stop offset="67.36%" stop-color="#19A59B" stop-opacity=".526"/>
            <stop offset="100%" stop-color="#25BF6F" stop-opacity=".296"/>
            <stop offset="100%" stop-color="#26C26A"/>
        </linearGradient>
        <linearGradient id="prefix__m" x1="80.048%" x2="57.728%" y1="239.069%" y2="-64.449%">
            <stop offset="0%" stop-color="#016FF5"/>
            <stop offset="67.36%" stop-color="#19A59B" stop-opacity=".526"/>
            <stop offset="100%" stop-color="#25BF6F" stop-opacity=".296"/>
            <stop offset="100%" stop-color="#26C26A"/>
        </linearGradient>
        <linearGradient id="prefix__n" x1="57.803%" x2="57.728%" y1="320.701%" y2="-64.449%">
            <stop offset="0%" stop-color="#016FF5"/>
            <stop offset="67.36%" stop-color="#19A59B" stop-opacity=".526"/>
            <stop offset="100%" stop-color="#25BF6F" stop-opacity=".296"/>
            <stop offset="100%" stop-color="#26C26A"/>
        </linearGradient>
        <linearGradient id="prefix__o" x1="72.52%" x2="57.728%" y1="263.897%" y2="-64.449%">
            <stop offset="0%" stop-color="#016FF5"/>
            <stop offset="67.36%" stop-color="#19A59B" stop-opacity=".526"/>
            <stop offset="100%" stop-color="#25BF6F" stop-opacity=".296"/>
            <stop offset="100%" stop-color="#26C26A"/>
        </linearGradient>
        <linearGradient id="prefix__p" x1="93.074%" x2="57.728%" y1="250.314%" y2="-64.449%">
            <stop offset="0%" stop-color="#016FF5"/>
            <stop offset="67.36%" stop-color="#19A59B" stop-opacity=".526"/>
            <stop offset="100%" stop-color="#25BF6F" stop-opacity=".296"/>
            <stop offset="100%" stop-color="#26C26A"/>
        </linearGradient>
        <linearGradient id="prefix__q" x1="83.459%" x2="57.728%" y1="202.092%" y2="-64.449%">
            <stop offset="0%" stop-color="#016FF5"/>
            <stop offset="67.36%" stop-color="#19A59B" stop-opacity=".526"/>
            <stop offset="100%" stop-color="#25BF6F" stop-opacity=".296"/>
            <stop offset="100%" stop-color="#26C26A"/>
        </linearGradient>
        <linearGradient id="prefix__r" x1="84.986%" x2="57.728%" y1="228.574%" y2="-64.449%">
            <stop offset="0%" stop-color="#016FF5"/>
            <stop offset="83.473%" stop-color="#19A59B" stop-opacity=".526"/>
            <stop offset="100%" stop-color="#25BF6F" stop-opacity=".296"/>
            <stop offset="100%" stop-color="#26C26A"/>
        </linearGradient>
        <linearGradient id="prefix__s" x1="148.793%" x2="16.147%" y1="220.885%" y2="-58.936%">
            <stop offset="0%" stop-color="#016FF5"/>
            <stop offset="52.236%" stop-color="#1499AF" stop-opacity=".632"/>
            <stop offset="67.36%" stop-color="#19A59B" stop-opacity=".526"/>
            <stop offset="100%" stop-color="#25BF6F" stop-opacity=".296"/>
            <stop offset="100%" stop-color="#26C26A"/>
        </linearGradient>
        <linearGradient id="prefix__t" x1="67.02%" x2="57.728%" y1="111.591%" y2="-64.449%">
            <stop offset="0%" stop-color="#016FF5"/>
            <stop offset="88.159%" stop-color="#19A59B" stop-opacity=".526"/>
            <stop offset="100%" stop-color="#25BF6F" stop-opacity=".296"/>
            <stop offset="100%" stop-color="#26C26A"/>
        </linearGradient>
        <linearGradient id="prefix__u" x1="77.268%" x2="43.49%" y1="100%" y2="-195.014%">
            <stop offset="0%" stop-color="#016FF5"/>
            <stop offset="67.36%" stop-color="#19A59B" stop-opacity=".526"/>
            <stop offset="100%" stop-color="#25BF6F" stop-opacity=".296"/>
            <stop offset="100%" stop-color="#26C26A"/>
        </linearGradient>
        <linearGradient id="prefix__v" x1="74.027%" x2="57.728%" y1="100%" y2="-64.449%">
            <stop offset="0%" stop-color="#016FF5"/>
            <stop offset="90.468%" stop-color="#19A59B" stop-opacity=".526"/>
            <stop offset="100%" stop-color="#25BF6F" stop-opacity=".296"/>
            <stop offset="100%" stop-color="#26C26A"/>
        </linearGradient>
        <linearGradient id="prefix__w" x1="49.08%" x2="49.435%" y1="-10.054%" y2="106.936%">
            <stop offset="0%" stop-color="#FFF" stop-opacity="0"/>
            <stop offset="46.532%" stop-color="#FFF" stop-opacity=".38"/>
            <stop offset="100%" stop-color="#FFF"/>
        </linearGradient>
        <linearGradient id="prefix__x" x1="-38.341%" x2="94.561%" y1="18.911%" y2="100%">
            <stop offset="0%" stop-color="#016FF5"/>
            <stop offset="100%" stop-color="#25CEB4"/>
        </linearGradient>
        <path id="prefix__a" d="M0 0H1920V738H0z"/>
    </defs>
    <g fill="none" fill-rule="evenodd" transform="translate(-34)">
        <path stroke="#FFF" stroke-linecap="square" stroke-width="46" d="M0 339.718L409.87 44 1057.866 264.076 1237.977 231.475 1549 403.807 1549 520.433 1384.975 567"/>
        <g transform="translate(34)">
            <mask id="prefix__b" fill="#fff">
                <use xlink:href="#prefix__a"/>
            </mask>
            <use fill="#FFF" xlink:href="#prefix__a"/>
            <text fill="#D4145A" font-family="OpenSans-SemiBold, Open Sans" font-size="13" font-weight="500" mask="url(#prefix__b)">
                <tspan x="1122" y="505">fg</tspan>
            </text>
            <g mask="url(#prefix__b)" opacity=".4">
                <g>
                    <path fill="url(#prefix__c)" d="M636.454 1002.824l21.427 1.836-51.863-72.822c-1.602-2.249-1.077-5.37 1.172-6.973.382-.271.8-.488 1.241-.644l154.4-54.317c2.604-.917 5.459.452 6.375 3.057.202.573.297 1.177.282 1.784l-3.504 140.666c-.052 2.067-1.37 3.89-3.319 4.584l-71.288 25.429c-2.107.75-4.456.012-5.753-1.81l-20.23-28.406-17.927 6.792 26.334 45.853c1.375 2.394.549 5.45-1.846 6.826-.412.237-.857.413-1.32.525L522.31 1110.92c-2.524.608-5.093-.817-5.914-3.28l-10.647-31.947-19.074 7.226c-1.818.69-3.87.262-5.262-1.096L360.599 964.01c-1.977-1.928-2.017-5.094-.089-7.07.526-.54 1.167-.954 1.876-1.21l163.575-59.313c1.496-.543 3.161-.34 4.484.544l40.604 27.152c2.295 1.535 2.912 4.64 1.376 6.936-.585.875-1.432 1.544-2.42 1.91L429.24 985.073l47.67 4.084-1.774-5.32c-.844-2.535.453-5.286 2.946-6.247l113.811-43.853c2.301-.887 4.905.037 6.134 2.175l38.428 66.911zm-586.7-130.313l235.85-76.632c2.626-.854 5.446.584 6.3 3.21l47.13 145.053c.854 2.626-.584 5.447-3.21 6.3l-235.85 76.633c-2.626.853-5.447-.584-6.3-3.21L46.544 878.81c-.854-2.626.583-5.447 3.21-6.3zm261.06-81.245l54.437-17.102c1.502-.472 3.139-.209 4.417.71l147.53 106.054c2.241 1.612 2.752 4.736 1.14 6.978-.589.82-1.413 1.442-2.362 1.785l-154.9 55.9c-2.598.937-5.464-.41-6.401-3.007-.018-.05-.036-.1-.052-.152l-47.065-144.851c-.854-2.626.584-5.447 3.21-6.3l.046-.015zm472.23 71.568l24.557-7.266c2.648-.784 5.43.727 6.213 3.375.03.104.058.208.082.313l13.71 60.447c.61 2.693-1.077 5.371-3.77 5.982-.786.178-1.604.164-2.383-.042l-36.511-9.647c-2.122-.561-3.63-2.44-3.719-4.633l-1.757-43.533c-.093-2.288 1.381-4.346 3.577-4.996zm113.324 53.48l52.573 2.62c2.758.137 4.882 2.484 4.745 5.242-.076 1.514-.834 2.913-2.063 3.802l-37.016 26.784c-.853.617-1.88.95-2.932.95l-16.6-.005c-2.762 0-5-2.24-4.999-5.001 0-.059.001-.118.003-.176l1.043-29.4c.098-2.759 2.415-4.917 5.175-4.819l.071.003zm10.472-41.186l34.463-3.805c2.744-.303 5.215 1.676 5.518 4.421.08.73 0 1.468-.237 2.163l-10.47 30.697c-.647 1.896-2.364 3.223-4.362 3.372l-33.348 2.484c-2.754.205-5.152-1.861-5.357-4.615-.048-.638.027-1.28.222-1.889l9.356-29.375c.6-1.883 2.251-3.236 4.215-3.453zm95.858-361.814l37.006-4.086c2.745-.303 5.215 1.677 5.519 4.421l.009.089 10.1 109.238c.254 2.75-1.77 5.185-4.519 5.44-.509.046-1.022.015-1.521-.093l-69.862-15.166c-2.699-.586-4.412-3.249-3.826-5.947l.039-.165 22.756-89.987c.512-2.022 2.225-3.515 4.299-3.744zm21.016-88.683l121.658-57.484c2.497-1.18 5.477-.113 6.657 2.384.253.537.41 1.115.46 1.707l9.076 105.231c.226 2.622-1.618 4.97-4.219 5.371l-145.332 22.43c-2.73.422-5.283-1.449-5.705-4.178-.09-.592-.075-1.195.047-1.78l14.598-70.178c.32-1.536 1.341-2.833 2.76-3.503zm40.98-155.358l47.125-9.519c2.707-.546 5.345 1.205 5.891 3.911.087.429.117.867.09 1.303l-6.68 106.645c-.116 1.86-1.259 3.502-2.963 4.258l-75.292 33.39c-2.524 1.12-5.478-.02-6.598-2.544-.462-1.043-.554-2.214-.26-3.317l34.846-130.515c.49-1.836 1.979-3.236 3.841-3.612zm58.346-9.754l21.107-5.267c2.68-.669 5.393.961 6.062 3.64.099.396.149.802.149 1.21l.024 96.025c0 1.942-1.123 3.708-2.882 4.53l-24.584 11.5c-2.501 1.17-5.477.091-6.647-2.41-.335-.715-.495-1.499-.468-2.287l3.452-102.259c.076-2.23 1.621-4.142 3.787-4.682zm70.228 286.468l72.962-36.058c2.476-1.224 5.474-.209 6.698 2.267.24.487.4 1.01.473 1.548l5.498 40.814c.287 2.132-.822 4.21-2.754 5.156l-68.948 33.809c-2.48 1.215-5.475.191-6.691-2.288-.157-.321-.28-.658-.365-1.004l-9.512-38.564c-.562-2.278.535-4.64 2.639-5.68zm80.231-93.747l87.117-29.134c2.62-.876 5.452.537 6.328 3.156.288.86.336 1.783.14 2.67l-20.636 92.986c-.306 1.38-1.182 2.566-2.41 3.264l-52.224 29.681c-2.4 1.365-5.453.525-6.818-1.876-.301-.531-.503-1.113-.596-1.717l-14.258-93.534c-.366-2.405 1.05-4.724 3.357-5.496zm72.293-194.418l57.172 20.482c2.544.911 3.904 3.68 3.069 6.251l-10.015 30.847c-.833 2.564-3.549 4.006-6.14 3.26l-53.335-15.358c-2.449-.705-3.976-3.14-3.544-5.651l6.179-35.97c.467-2.722 3.052-4.549 5.774-4.081.286.049.567.123.84.22zm9.987-102.74l42.284-6.992c2.724-.45 5.298 1.393 5.748 4.117.09.546.09 1.103-.002 1.649l-5.581 33.053c-.46 2.723-3.04 4.557-5.763 4.098-.539-.091-1.06-.27-1.541-.53l-35.765-19.294c-.647-.35-1.05-1.025-1.05-1.76l-.003-12.367c0-.978.708-1.814 1.673-1.973zm56.773-11.456l34.271-7.188c2.703-.566 5.353 1.165 5.92 3.868.018.087.034.176.048.264l11.743 76.167c.42 2.73-1.451 5.283-4.18 5.703-1.013.157-2.05-.002-2.97-.455l-56.35-27.73c-.837-.412-1.278-1.347-1.064-2.254l11.045-46.877c.178-.755.777-1.34 1.537-1.498zm-53.116 32.345l64.642 37.143c2.042 1.173 2.988 3.612 2.272 5.855l-15.656 49.059c-.836 2.617-3.626 4.07-6.25 3.253l-57.869-18.012c-2.32-.723-3.786-3.01-3.472-5.42l8.884-68.189c.357-2.738 2.866-4.669 5.604-4.312.65.085 1.277.296 1.845.623zm-282.341 28.398l63.133-12.425c2.71-.533 5.338 1.231 5.871 3.94.045.23.074.462.087.695l2.54 46.774c.134 2.47-1.558 4.667-3.98 5.168l-78.856 16.306c-2.704.56-5.35-1.18-5.91-3.884-.155-.751-.135-1.529.058-2.271l13.183-50.656c.484-1.859 1.99-3.276 3.874-3.647zm99.907 283.227l23.27-10.893c2.501-1.171 5.478-.093 6.648 2.408.136.29.243.591.321.901l9.76 38.84c.57 2.268-.508 4.628-2.595 5.682l-21.502 10.863c-2.465 1.245-5.473.257-6.718-2.208-.135-.267-.245-.545-.33-.831l-11.527-38.81c-.705-2.372.432-4.903 2.673-5.952zm37.022-16.459l40.88-14.302c2.607-.912 5.459.462 6.37 3.068.096.272.168.552.214.836l5.787 35c.357 2.162-.734 4.304-2.692 5.286l-35.266 17.686c-2.468 1.238-5.473.24-6.711-2.228-.132-.263-.24-.536-.324-.818l-11.4-38.385c-.76-2.558.623-5.262 3.142-6.143zm-4.545 132.041l126.65-65.21c2.455-1.265 5.47-.3 6.734 2.156.523 1.016.683 2.18.452 3.299l-17.049 82.67c-.365 1.77-1.656 3.205-3.377 3.754l-96.084 30.644c-2.631.84-5.444-.613-6.283-3.244-.018-.055-.034-.111-.05-.167l-13.518-48.104c-.642-2.287.413-4.71 2.525-5.798zm-52.53-410.573l83.774-17.907c2.7-.578 5.358 1.144 5.935 3.844.127.592.145 1.201.053 1.8l-13.38 87.72c-.416 2.73-2.966 4.605-5.696 4.189-.27-.041-.535-.104-.794-.188l-67.46-21.96c-1.951-.635-3.317-2.399-3.442-4.448l-2.935-47.855c-.151-2.469 1.526-4.678 3.946-5.195zm92.72 36.95l85.642-28.077c2.624-.86 5.449.57 6.309 3.194.244.745.31 1.536.192 2.311l-13.26 86.928c-.416 2.73-2.966 4.606-5.696 4.19-.244-.038-.485-.093-.721-.166l-78.048-24.103c-2.385-.737-3.861-3.119-3.46-5.582l5.664-34.747c.3-1.843 1.603-3.365 3.377-3.947zm6.566-53.364l88.7-19.15c2.7-.583 5.36 1.133 5.943 3.832.159.736.15 1.499-.028 2.23l-6.95 28.723c-.407 1.683-1.656 3.036-3.301 3.575l-86.754 28.449c-2.623.86-5.448-.57-6.309-3.193-.233-.712-.304-1.467-.206-2.21l5.003-38.02c.275-2.095 1.837-3.79 3.902-4.236zm-193.93 329.53l95.324-14.237c2.465-.368 4.825 1.135 5.533 3.524l48.021 162.028c.785 2.647-.726 5.43-3.373 6.214-.806.24-1.66.271-2.482.093l-133.24-28.935c-2.145-.466-3.735-2.276-3.92-4.463l-10.107-118.854c-.224-2.63 1.634-4.98 4.243-5.37zm99.161-248.79l230.105 70.22c2.641.805 4.129 3.6 3.323 6.24l-.005.017-22.963 74.353c-.472 1.526-1.644 2.735-3.155 3.254l-194.406 66.728c-2.612.896-5.456-.495-6.353-3.106-.146-.427-.234-.872-.262-1.323l-12.734-211.3c-.166-2.757 1.934-5.126 4.69-5.292.595-.036 1.19.035 1.76.208zM957.43 872.16l93.885-8.837c2.75-.258 5.188 1.76 5.447 4.51.187 1.99-.829 3.9-2.583 4.857L990.28 907.57c-.548.3-1.148.493-1.768.572l-37.208 4.706c-2.74.347-5.242-1.593-5.588-4.333-.075-.591-.044-1.19.093-1.77l7.222-30.749c.49-2.09 2.261-3.633 4.399-3.834zm22.981-80.924l100.229-32.67c2.625-.855 5.448.58 6.303 3.205.346 1.06.327 2.204-.052 3.252l-32.533 89.804c-.666 1.838-2.343 3.12-4.292 3.28l-84.137 6.912c-2.752.226-5.166-1.822-5.392-4.574-.046-.555.001-1.113.14-1.652l16.441-64.046c.425-1.657 1.668-2.981 3.293-3.511zm32.926 149.444l136.567-71.889c2.443-1.286 5.467-.348 6.753 2.096.165.312.296.642.391.983l30.809 110.213c.597 2.138-.286 4.414-2.17 5.589l-144.727 90.234c-2.343 1.461-5.427.746-6.888-1.597-.34-.544-.57-1.147-.681-1.778l-22.65-128.56c-.376-2.14.673-4.279 2.596-5.291zm156.807-79.028l76.25-38.698c1.613-.82 3.544-.702 5.047.306l95.774 64.234c2.293 1.538 2.905 4.644 1.367 6.938-.747 1.115-1.912 1.882-3.231 2.13l-154.222 28.906c-2.466.462-4.894-.975-5.673-3.36l-17.801-54.443c-.766-2.344.29-4.897 2.49-6.013zm23.31 73.067l67.482-11.885c2.676-.47 5.239 1.281 5.77 3.946l11.418 57.19c.51 2.557-1.03 5.077-3.538 5.789l-67.174 19.067c-2.657.755-5.421-.788-6.176-3.444-.043-.155-.08-.311-.109-.47l-11.725-64.373c-.494-2.717 1.307-5.32 4.024-5.815l.028-.005zm84.984-16.708l67.482-11.884c2.676-.471 5.239 1.28 5.77 3.945l11.418 57.19c.51 2.557-1.03 5.077-3.538 5.79l-67.174 19.067c-2.657.754-5.422-.788-6.176-3.445-.043-.154-.08-.31-.109-.469l-11.725-64.374c-.494-2.716 1.307-5.32 4.023-5.815l.03-.005zm349.698-140.156l89.18 16.452c2.318.427 4.022 2.415 4.091 4.77l1.9 64.756c.081 2.76-2.09 5.063-4.851 5.144-.268.008-.536-.006-.802-.04l-81.502-10.783c-2.234-.295-3.994-2.05-4.298-4.282l-9.58-70.426c-.371-2.737 1.545-5.257 4.281-5.629.526-.071 1.06-.059 1.581.038zm124.135-109.55l164.824-17.17c2.747-.287 5.205 1.708 5.492 4.454.101.977-.087 1.963-.542 2.833l-65.143 124.708c-1.015 1.943-3.178 2.998-5.334 2.603l-98.466-18.066c-2.349-.431-4.065-2.463-4.097-4.85l-1.215-89.472c-.036-2.587 1.908-4.773 4.481-5.04zm-10.397-115.873l112.934-61.01c2.43-1.312 5.463-.406 6.776 2.024.376.695.581 1.47.6 2.26l3.456 149.802c.06 2.598-1.88 4.809-4.464 5.086l-107.827 11.6c-2.746.296-5.211-1.69-5.507-4.436l-.01-.11-8.564-100.392c-.169-1.983.855-3.878 2.606-4.824zm130.778-63.758l112.999-61.044c2.43-1.313 5.463-.407 6.775 2.022.376.696.582 1.47.6 2.261l3.406 147.6c.064 2.761-2.123 5.05-4.883 5.114-.505.012-1.009-.053-1.494-.192l-112.916-32.394c-2.03-.582-3.475-2.377-3.61-4.484l-3.49-54.163c-.126-1.948.894-3.792 2.613-4.72zm5.318 68.937l126.394 34.85c2.662.734 4.225 3.487 3.49 6.149l-.02.074-12.084 41.316c-.607 2.074-2.477 3.523-4.637 3.594l-116.124 3.77c-2.76.09-5.07-2.075-5.16-4.835-.002-.091-.003-.183 0-.275l1.813-79.936c.063-2.76 2.352-4.948 5.112-4.885.411.009.82.069 1.216.178zm140.558 31.44l71.27-35.403c2.472-1.229 5.473-.22 6.702 2.253.37.744.548 1.569.519 2.399l-2.685 77.044c-.092 2.64-2.22 4.752-4.86 4.824l-82.043 2.23c-2.76.076-5.059-2.101-5.134-4.861-.015-.543.059-1.084.218-1.603l13.457-43.872c.403-1.312 1.327-2.401 2.556-3.012zm-12.662-99.878l84.07 22.006c2.597.679 4.193 3.287 3.618 5.908l-4.34 19.788c-.306 1.393-1.192 2.59-2.435 3.288l-79.71 44.777c-2.407 1.352-5.455.497-6.807-1.91-.42-.748-.64-1.591-.64-2.448l-.023-86.57c0-2.762 2.238-5.001 5-5.002.427 0 .853.055 1.267.163zm-5.38-73.76l70.916-37.875c2.436-1.301 5.465-.381 6.766 2.055.36.673.56 1.42.586 2.183l3.93 114.103c.095 2.76-2.066 5.074-4.825 5.17-.42.014-.84-.025-1.251-.116l-74.83-16.531c-2.29-.506-3.922-2.536-3.922-4.882l-.015-59.695c0-1.846 1.016-3.542 2.644-4.411zm82.549-41.512l64.347-35.413-32.927 61.271c-.871 1.622-2.564 2.634-4.405 2.634l-21.055-.006c-2.408 0-4.474-1.718-4.914-4.086l-3.551-19.106c-.395-2.12.615-4.255 2.505-5.294zm-186.717 350.37l191.425 15.397c2.752.221 4.804 2.632 4.583 5.385-.1 1.241-.66 2.4-1.57 3.251l-75.627 70.701c-1.183 1.107-2.83 1.571-4.416 1.246l-145.588-29.782c-2.705-.554-4.45-3.195-3.896-5.9.095-.467.256-.916.478-1.337l29.79-56.315c.935-1.765 2.83-2.806 4.821-2.646zm207.54 16.6l21.796.008c2.76 0 4.998 2.238 4.999 4.998l.025 91.422c.001 2.761-2.237 5-4.998 5.001-.326 0-.65-.031-.97-.094l-96.344-19.026c-2.71-.535-4.472-3.165-3.937-5.874.197-.997.692-1.91 1.421-2.618l74.522-72.404c.934-.906 2.184-1.414 3.486-1.413zm34.828.956l94.368-28.863c2.64-.807 5.436.679 6.244 3.32.148.485.222.99.218 1.499l-1.039 140.807c-.02 2.762-2.275 4.984-5.036 4.963-.318-.002-.635-.035-.946-.097l-93.306-18.71c-2.336-.47-4.017-2.52-4.017-4.902l-.024-93.234c0-2.199 1.436-4.14 3.538-4.783zm-204.256-90.041l69.497-3.397c2.758-.135 5.103 1.992 5.238 4.75.008.177.008.355-.003.532l-3.957 68.483c-.16 2.757-2.524 4.863-5.28 4.703h-.011l-97.35-5.836c-2.757-.166-4.858-2.534-4.692-5.29.043-.724.243-1.429.585-2.067l31.812-59.25c.83-1.545 2.41-2.543 4.161-2.628zm221.003-316.856l70.605-38.074c2.431-1.311 5.464-.403 6.775 2.027.425.79.631 1.68.595 2.576l-4.139 101.972c-.112 2.76-2.44 4.905-5.198 4.793-.032 0-.065-.002-.097-.004l-97.303-5.834c-2.756-.165-4.857-2.533-4.691-5.29.043-.715.239-1.413.575-2.046l30.836-58.064c.463-.872 1.174-1.587 2.042-2.056zm-61.857 69.569l129.5 8.844c2.755.188 4.836 2.574 4.648 5.329-.056.826-.317 1.626-.76 2.327l-46.809 74.205c-.792 1.255-2.1 2.094-3.572 2.289l-82.667 10.954c-2.738.362-5.25-1.563-5.614-4.3-.028-.217-.043-.436-.043-.656l-.023-94.002c-.001-2.762 2.237-5.001 4.998-5.002.114 0 .228.004.342.012zm14.883 104.922l131.319-8.704c2.755-.183 5.137 1.903 5.32 4.658.065.99-.165 1.978-.663 2.836l-21.693 37.47c-.93 1.606-2.675 2.565-4.53 2.49l-114.988-4.67c-2.759-.113-4.905-2.44-4.793-5.2.013-.297.051-.593.116-.883l5.362-24.094c.483-2.167 2.336-3.756 4.55-3.903zm123.185-82.87l96.172 7.825c2.753.224 4.802 2.636 4.578 5.389-.086 1.062-.51 2.068-1.208 2.873l-41.995 48.352c-.874 1.006-2.114 1.622-3.445 1.71l-92.288 6.1c-2.756.181-5.137-1.905-5.319-4.66-.068-1.031.185-2.058.724-2.94l38.111-62.275c.985-1.609 2.79-2.527 4.67-2.374zm-214.077 222.852l71.524-5.67c2.753-.219 5.161 1.836 5.38 4.589.017.224.02.448.007.673l-4.42 79.397c-.153 2.757-2.513 4.868-5.27 4.715l-.031-.002-70.542-4.371c-2.732-.17-4.82-2.505-4.685-5.238l3.438-69.356c.125-2.51 2.093-4.538 4.599-4.737zm170.106-18.783l68.948-6.944c2.748-.277 5.2 1.726 5.476 4.474.044.44.03.886-.043 1.323l-12.238 73.42c-.322 1.927-1.736 3.49-3.622 4.003l-102.99 27.974c-.533.145-1.083-.17-1.227-.703-.059-.214-.044-.441.041-.646l41.54-99.846c.706-1.698 2.286-2.87 4.115-3.055zm31.332-75.224l72.028 3.53c2.756.134 4.881 2.475 4.75 5.23l-2.296 48.266c-.117 2.472-2.025 4.486-4.487 4.737l-100.607 10.243c-.55.056-1.04-.344-1.096-.893-.016-.16.006-.32.065-.47l26.75-67.491c.789-1.99 2.756-3.257 4.893-3.152zm-111.765-6.787l98.686 4.885c2.758.137 4.883 2.483 4.746 5.241-.029.585-.16 1.16-.388 1.7l-72.7 171.964c-.8 1.892-2.676 3.103-4.73 3.052l-33.481-.83c-2.76-.068-4.943-2.36-4.875-5.121l.003-.09 7.496-176.02c.118-2.76 2.45-4.9 5.209-4.783l.034.002zm-349.589 248.808l88.576 17.846c2.28.46 3.942 2.43 4.01 4.755l1.903 64.854c.08 2.76-2.091 5.063-4.851 5.144-.26.008-.52-.005-.777-.038l-87.905-11.17c-2.43-.308-4.278-2.332-4.366-4.78l-2.574-71.53c-.1-2.759 2.057-5.076 4.817-5.176.392-.014.783.018 1.167.095zm104.88 21.14l49.43 9.904c2.336.468 4.017 2.519 4.018 4.901l.008 31.89c0 2.76-2.238 5-4.999 5-.18 0-.36-.009-.54-.028l-48.367-5.241c-2.483-.27-4.386-2.329-4.46-4.825l-1.07-36.552c-.08-2.76 2.092-5.063 4.852-5.144.379-.011.757.02 1.129.095zm61.67 12.071l49.224 9.863c2.445.49 4.155 2.705 4.01 5.193l-3.412 58.477c-.161 2.756-2.526 4.86-5.283 4.7-.16-.01-.318-.026-.476-.05l-44.42-6.902c-2.393-.371-4.176-2.405-4.23-4.827l-1.395-61.438c-.062-2.76 2.125-5.05 4.886-5.112.367-.008.735.024 1.095.096zm64.85 8.68l47.348 9.822c2.428.504 4.12 2.712 3.976 5.188l-3.284 56.05c-.162 2.757-2.527 4.861-5.284 4.7-.102-.007-.204-.016-.305-.028l-47.824-5.754c-2.631-.317-4.559-2.632-4.393-5.277l3.761-60.116c.172-2.757 2.546-4.851 5.302-4.679.237.015.472.047.704.095zm62.272 15.203l47.328 9.817c2.413.5 4.101 2.684 3.978 5.145l-4.76 95.38c-.137 2.757-2.485 4.882-5.243 4.744-.116-.006-.232-.016-.348-.03l-47.823-5.754c-2.613-.314-4.535-2.6-4.396-5.228l5.255-99.442c.146-2.758 2.5-4.875 5.257-4.73.253.014.504.046.752.098zm-94.719 56.856l46.516 4.858c2.728.284 4.717 2.713 4.459 5.443l-1.849 19.573c-.242 2.568-2.4 4.53-4.979 4.53l-60.325-.015c-1.104 0-2-.896-1.999-2 0-.284.06-.564.177-.823l12.923-28.649c.886-1.965 2.933-3.14 5.077-2.917zm56.767 6.205l21.524 1.577c1.063.078 1.878.976 1.853 2.042l-.513 21.723c-.025 1.06-.874 1.917-1.934 1.952l-22.542.745c-1.104.036-2.028-.83-2.065-1.933-.002-.065 0-.13.003-.193l1.532-24.046c.07-1.102 1.02-1.939 2.123-1.869l.019.002zm96.7-51.448l45.546 9.672c1.08.23 1.77 1.292 1.54 2.372-.025.12-.061.236-.108.35l-30.005 72.508c-.35.845-1.228 1.345-2.133 1.215l-19.259-2.77c-1.02-.146-1.761-1.044-1.713-2.073l3.718-79.411c.052-1.104.988-1.956 2.092-1.905.108.005.216.02.322.042zm-251.902 1.39l52.74 5.693c2.539.274 4.463 2.417 4.464 4.97l.004 17.939c.001 2.761-2.237 5-4.998 5.001-.286 0-.571-.024-.853-.073l-52.737-9.113c-.48-.082-.83-.498-.83-.985l-.005-21.442c0-1.105.895-2 2-2 .071 0 .143.003.215.01zm304.298 9.62l67.346 10.206c2.443.37 4.25 2.47 4.25 4.942l.006 21.604c0 2.761-2.237 5-4.999 5-.274 0-.547-.022-.817-.066l-75.27-12.457c-.544-.09-.913-.605-.823-1.15.007-.043.017-.085.03-.127l8.063-26.555c.289-.95 1.231-1.545 2.214-1.397zM1632.38 686.18l85.436-11.214c2.738-.36 5.249 1.569 5.608 4.307.028.215.042.432.042.65l.02 74.778c0 2.761-2.238 5-5 5.001-.29 0-.58-.025-.865-.075l-100.985-17.717c-2.72-.477-4.538-3.069-4.061-5.789.044-.251.107-.499.189-.74l15.531-45.848c.612-1.805 2.196-3.105 4.085-3.353zm27.453-86.701l49.816-32.547c2.312-1.51 5.41-.861 6.92 1.45.532.813.815 1.763.815 2.734l.023 91.797c0 2.462-1.79 4.557-4.222 4.94l-74.578 11.758c-2.728.43-5.288-1.432-5.718-4.16-.128-.813-.053-1.646.218-2.424l24.739-71.007c.363-1.043 1.062-1.937 1.987-2.541zm-18.68 268.532l78.57 11.659c2.396.355 4.192 2.377 4.263 4.799l1.924 65.57c.08 2.727-2.04 5.015-4.765 5.141l-73.913 3.442c-2.69.126-4.997-1.903-5.216-4.588l-6.58-80.671c-.224-2.752 1.825-5.166 4.577-5.39.38-.031.763-.018 1.14.038zm119.855 15.303l85.388 12.61c2.732.403 4.62 2.945 4.216 5.676-.062.418-.176.827-.34 1.216l-29.553 69.932c-.769 1.82-2.537 3.016-4.512 3.053l-51.7.972c-2.702.051-4.955-2.053-5.088-4.752l-4.135-83.513c-.136-2.758 1.989-5.104 4.747-5.241.326-.016.654 0 .977.047zm100.418 14.351l80.71 12.04c2.73.407 4.614 2.951 4.207 5.682-.062.416-.176.822-.34 1.209l-28.935 68.472c-1.05 2.486-3.885 3.69-6.403 2.72l-73.61-28.358c-2.577-.993-3.862-3.887-2.869-6.463.017-.045.035-.09.054-.134l21.837-52.154c.883-2.11 3.087-3.351 5.35-3.014zm291.374 13.67l80.709 12.04c2.731.407 4.615 2.95 4.207 5.682-.062.416-.176.822-.34 1.209l-28.935 68.472c-1.05 2.486-3.884 3.69-6.403 2.72l-73.61-28.358c-2.577-.993-3.861-3.887-2.868-6.464l.053-.133 21.837-52.154c.884-2.11 3.087-3.352 5.35-3.014zm-784.566-10.932l90.371-12.624c2.134-.298 4.219.804 5.174 2.736l30.864 62.423c1.224 2.476.21 5.474-2.266 6.698-.482.239-1 .398-1.533.471l-109.413 15.101c-2.653.366-5.123-1.423-5.603-4.057l-11.821-64.9c-.495-2.717 1.306-5.32 4.023-5.816.068-.012.136-.023.204-.032zm100.61-42.102l147.882-16.243c2.745-.301 5.214 1.68 5.516 4.424l.007.071 11.32 118.705c.262 2.749-1.754 5.19-4.503 5.452-.191.018-.383.025-.575.021l-112.819-2.271c-1.911-.039-3.633-1.164-4.437-2.899l-46.382-100.19c-1.16-2.506-.069-5.477 2.437-6.638.491-.227 1.016-.373 1.555-.432zm-206.941-46.985l77.997-39.918c2.458-1.258 5.471-.286 6.73 2.173.14.275.255.564.343.86l15.823 53.558c.761 2.575-.648 5.292-3.192 6.153l-45.743 15.478c-1.397.473-2.931.305-4.193-.46l-48.078-29.117c-2.362-1.43-3.117-4.505-1.686-6.867.48-.793 1.173-1.438 1.999-1.86zm96.346-51.651l37.371-20.714c2.416-1.339 5.459-.466 6.797 1.95.05.09.097.18.141.273l26.859 56.39c1.187 2.492.129 5.476-2.364 6.663-.12.057-.24.11-.364.156l-51.91 19.86c-2.579.988-5.47-.303-6.456-2.882-.088-.23-.159-.465-.212-.704l-12.32-55.536c-.48-2.162.52-4.382 2.458-5.456zm60.669-373.843l3.85-22.362c.468-2.722 3.054-4.548 5.775-4.08.183.032.364.074.542.125l96.744 27.999c2.566.742 4.095 3.37 3.472 5.968l-14.452 60.282c-.644 2.685-3.343 4.34-6.028 3.696-.68-.163-1.318-.467-1.873-.891l-86.141-65.918c-1.477-1.13-2.205-2.987-1.89-4.82zm-.23 347.522l60.483 10.597c1.614.282 2.986 1.337 3.675 2.824l42.063 90.846c1.16 2.505.07 5.477-2.437 6.638-.52.24-1.078.39-1.65.442l-54.56 4.942c-2.123.192-4.133-.982-5.01-2.924l-47.985-106.385c-1.135-2.517-.015-5.478 2.502-6.613.914-.413 1.931-.54 2.919-.367zm-93.405 119.805l101.808-38.743c2.477-.943 5.26.212 6.343 2.632l24.58 54.972c1.128 2.521-.002 5.479-2.523 6.606-.435.195-.897.326-1.37.39l-88.416 11.969c-1.293.175-2.603-.163-3.651-.941l-37.973-28.198c-2.217-1.646-2.68-4.778-1.034-6.995.569-.766 1.345-1.353 2.236-1.692zm177.995-103.22l107.37 22.744c2.072.439 3.642 2.134 3.92 4.233l6.47 48.687c.363 2.737-1.561 5.251-4.298 5.615l-.04.005-74.625 9.302c-2.124.264-4.181-.852-5.116-2.777l-39.215-80.733c-1.207-2.484-.171-5.476 2.313-6.682 1-.486 2.133-.625 3.22-.394zm-39.787-47.334l56.055-35.068c2.34-1.465 5.426-.754 6.89 1.587.535.855.8 1.852.757 2.86l-1.913 45.975c-.115 2.759-2.445 4.902-5.204 4.788-.262-.011-.523-.043-.78-.095l-54.14-10.906c-2.708-.546-4.46-3.182-3.915-5.89.271-1.346 1.085-2.522 2.25-3.25zm73.595-42.535l106.207-59.884c2.405-1.356 5.455-.505 6.811 1.9.697 1.236.836 2.71.383 4.053l-43.435 128.804c-.798 2.366-3.218 3.78-5.67 3.315l-65.447-12.432c-2.447-.465-4.18-2.66-4.062-5.149l2.674-56.488c.082-1.719 1.04-3.274 2.54-4.12zm-432.113 95.545l38.532-13.05c2.615-.885 5.454.517 6.34 3.132.084.25.149.506.193.766l11.721 68.9c.385 2.258-.816 4.49-2.913 5.413l-82.707 36.445c-2.527 1.114-5.478-.032-6.592-2.56-.512-1.162-.563-2.475-.141-3.674l32.454-92.295c.51-1.45 1.658-2.584 3.113-3.077zm55.25-23.388l38.316-13.115c2.503-.857 5.24.384 6.244 2.83l12.706 30.921c1.05 2.554-.17 5.476-2.724 6.525l-.12.048-44.583 16.99c-2.58.983-5.47-.312-6.453-2.892-.108-.282-.19-.574-.244-.87l-6.44-34.797c-.45-2.437.953-4.837 3.298-5.64zm51.968-21.764l30.459-10.837c2.128-.757 4.5.007 5.787 1.865l27.243 39.356c1.572 2.27 1.005 5.385-1.265 6.957-.207.143-.425.27-.652.381l-38.75 18.925c-2.481 1.212-5.475.183-6.687-2.299-.054-.111-.105-.224-.15-.34l-18.953-47.443c-1.024-2.564.224-5.473 2.789-6.498.059-.023.119-.046.179-.067zm147.618-56.444l12.503-57.634c.586-2.698 3.248-4.411 5.946-3.826 1.05.228 2 .788 2.707 1.598l66.011 75.607c1.816 2.08 1.602 5.238-.478 7.055-.328.286-.692.528-1.083.72l-31.132 15.302c-1.639.805-3.586.654-5.08-.396l-47.38-33.274c-1.647-1.156-2.44-3.186-2.014-5.152zm27.968-147.951l24.765-106.067c.627-2.69 3.316-4.36 6.005-3.733.692.162 1.341.469 1.905.9l116.993 89.645c1.932 1.48 2.517 4.138 1.385 6.293l-45.14 85.963c-1.284 2.445-4.307 3.386-6.752 2.102-.207-.109-.406-.232-.596-.369l-96.617-69.54c-1.639-1.179-2.407-3.228-1.948-5.194zm-8.225 74.623l7.257-53.567c.37-2.737 2.89-4.655 5.626-4.284.824.112 1.607.427 2.278.917l37.026 27.043c1.897 1.385 2.574 3.903 1.627 6.053l-21.796 49.5c-1.112 2.528-4.063 3.675-6.59 2.562-.584-.257-1.113-.623-1.559-1.079l-22.488-22.977c-1.078-1.102-1.588-2.64-1.38-4.168zm21.548-261.06l29.705-100.195c.785-2.648 3.567-4.158 6.215-3.373.178.053.353.116.524.188l127.414 53.825c2.544 1.074 3.735 4.008 2.66 6.551-.147.35-.334.681-.556.988l-53.945 74.47c-1.22 1.685-3.356 2.438-5.363 1.891l-103.174-28.1c-2.665-.726-4.236-3.474-3.51-6.138.009-.036.02-.072.03-.107zm149.054-10.98l52.06-63.645c1.748-2.138 4.898-2.453 7.036-.705.173.142.336.295.489.458l32.863 35.193c1.61 1.724 1.796 4.337.448 6.271l-44.045 63.218c-1.579 2.265-4.695 2.822-6.96 1.244-.132-.092-.26-.19-.382-.294l-40.878-34.766c-2.075-1.765-2.356-4.866-.631-6.975zm488.617-15.869l58.219-72.074c1.735-2.148 4.883-2.483 7.031-.747.182.146.353.306.513.477l32.839 35.167c1.609 1.723 1.796 4.336.448 6.27l-44.559 63.955c-1.488 2.136-4.366 2.773-6.616 1.464l-46.5-27.048c-2.387-1.388-3.196-4.449-1.807-6.836.127-.22.272-.43.432-.628zm50.61 46.431l50.124-74.435c1.542-2.29 4.65-2.897 6.94-1.355.358.242.684.528.969.853l22.77 25.995c1.819 2.077 1.61 5.236-.468 7.056-.275.24-.575.45-.896.626l-78.13 42.697c-.486.264-1.093.086-1.358-.398-.18-.328-.16-.729.048-1.039zm-108.926-82.391l67.519-83.027c1.742-2.142 4.891-2.467 7.034-.725.087.071.171.145.253.221l38.752 36.103c1.908 1.777 2.13 4.723.508 6.766l-59.267 74.702c-1.553 1.956-4.311 2.467-6.461 1.196l-47.003-27.777c-2.377-1.405-3.165-4.471-1.76-6.849.126-.214.268-.418.425-.61zm-63.654-.953l-7.825-101.156c-.189-2.438 1.414-4.654 3.787-5.24l72.049-17.777c2.68-.661 5.39.976 6.052 3.657.23.935.186 1.918-.128 2.829l-36.703 106.327c-.446 1.292-1.402 2.345-2.644 2.914l-27.52 12.606c-2.51 1.15-5.478.047-6.628-2.464-.246-.535-.394-1.11-.44-1.696zm40.555-8.404l18.21-52.09c.91-2.608 3.762-3.982 6.37-3.07.36.125.706.293 1.029.498l24.996 15.867c2.331 1.48 3.022 4.57 1.542 6.901-.097.153-.202.3-.315.44l-33.074 41.406c-1.483 1.857-4.068 2.413-6.183 1.331l-10.132-5.182c-2.224-1.137-3.267-3.742-2.443-6.101zm22.203-65.12l17.012-51.019c.874-2.62 3.706-4.035 6.325-3.161.247.082.487.183.718.303L2050 152.479c2.452 1.27 3.41 4.287 2.14 6.74-.129.25-.28.488-.45.713l-33.84 44.81c-1.543 2.043-4.379 2.59-6.571 1.27l-29.557-17.814c-2.004-1.208-2.902-3.644-2.162-5.864zm-411.022-28.625l114.784-75.712c2.306-1.52 5.407-.885 6.927 1.42.539.817.826 1.774.826 2.752l.022 86.86c0 1.853-1.023 3.553-2.66 4.42l-71.565 37.913c-2.043 1.082-4.562.622-6.091-1.113l-43.24-49.06c-1.827-2.072-1.628-5.231.444-7.057.174-.154.36-.295.553-.423zm-58.169-56.437l57.221-74.469c1.683-2.19 4.822-2.6 7.012-.918.366.281.691.612.967.983l54.862 73.847c1.647 2.216 1.185 5.348-1.032 6.995l-.019.014-65.48 48.167c-2.005 1.475-4.79 1.25-6.533-.527l-46.604-47.546c-1.744-1.78-1.912-4.57-.394-6.546zm77.38-81.528L1691.305.98c2.734-.39 5.266 1.51 5.655 4.244.096.669.055 1.35-.12 2.001l-15.095 56.267c-.326 1.215-1.099 2.263-2.163 2.934l-38.713 24.401c-2.198 1.386-5.091.856-6.657-1.217l-49.748-65.904c-1.663-2.204-1.225-5.34.979-7.003.675-.51 1.469-.84 2.306-.96zm3.269 354.785l53.893-78.023c1.569-2.272 4.683-2.841 6.955-1.272.218.15.423.318.614.5l53.994 51.635c.986.943 1.544 2.248 1.544 3.612l.015 58.061c0 2.762-2.238 5.001-5 5.002-.476 0-.95-.068-1.409-.203l-107.9-31.673c-2.65-.778-4.168-3.556-3.39-6.206.15-.51.381-.995.684-1.433zm144.274 38.3l-.018-70.032c0-2.098 1.309-3.973 3.278-4.695l214.393-78.64c2.593-.95 5.465.38 6.416 2.973.448 1.222.403 2.57-.128 3.759l-83.25 186.641c-1.016 2.28-3.559 3.46-5.957 2.766l-131.125-37.97c-2.138-.62-3.609-2.576-3.61-4.802zm-110.837-194.624l155.31-65.65c2.544-1.075 5.478.115 6.553 2.659.166.393.281.805.343 1.227l20.912 143.87c.342 2.355-1.023 4.625-3.264 5.427l-68.914 24.657c-1.784.639-3.776.213-5.145-1.098L1622.942 222.42c-1.993-1.91-2.06-5.076-.15-7.07.471-.49 1.037-.88 1.663-1.145zm181.855 11.147l95.555-37.35c2.572-1.005 5.471.265 6.477 2.837.175.449.285.92.325 1.4l5.626 66.607c.191 2.256-1.159 4.359-3.29 5.125l-92.282 33.2c-2.598.935-5.462-.414-6.397-3.012-.115-.32-.197-.651-.245-.988l-8.899-62.457c-.327-2.297.97-4.517 3.13-5.362zm-10.623-77.462l95.673-37.396c2.571-1.005 5.471.265 6.477 2.837.164.42.27.86.316 1.308l6.668 64.75c.233 2.261-1.09 4.396-3.22 5.194l-93.453 35.02c-2.585.97-5.467-.341-6.436-2.927-.127-.34-.217-.691-.268-1.05l-8.886-62.374c-.328-2.297.968-4.517 3.13-5.362zm-274.963 201.717l21.501-29.09c1.642-2.22 4.772-2.69 6.993-1.048.085.062.167.127.247.195l40.697 34.248c1.833 1.543 2.314 4.17 1.146 6.263l-7.409 13.272c-1.173 2.102-3.678 3.07-5.96 2.302l-54.789-18.431c-2.617-.88-4.025-3.716-3.144-6.333.166-.494.408-.96.718-1.378zm405.753-2.352l37.254-79.298c1.174-2.499 4.152-3.573 6.651-2.4.13.062.259.13.384.202l113.756 66.022c2.389 1.386 3.201 4.446 1.815 6.834-.529.911-1.332 1.632-2.295 2.06l-29.958 13.306c-.64.284-1.331.43-2.031.43l-121.052-.03c-2.761 0-5-2.24-4.999-5.001 0-.735.163-1.46.475-2.125zm-42.892 96.08l39.331-81.844c.853-1.775 2.667-2.884 4.635-2.833l99.08 2.54c2.76.071 4.941 2.366 4.87 5.127-.046 1.806-1.063 3.447-2.66 4.292l-142.518 75.352c-.977.517-2.187.143-2.703-.833-.296-.56-.31-1.23-.035-1.801zm-413.713-220.346l-10.901-84.27c-.355-2.738 1.578-5.246 4.317-5.6l.048-.006c21.738-2.598 33.878-3.221 36.421-1.869 2.686 1.428 35.94 35.806 99.761 103.133 1.858 1.96 1.824 5.042-.078 6.96l-23.474 23.675c-1.415 1.427-3.547 1.868-5.412 1.12l-97.584-39.144c-1.68-.674-2.865-2.203-3.098-3.999zm-57.61 395.04l27.121-57.174c1.183-2.495 4.165-3.559 6.66-2.375.333.158.647.352.937.579l32.595 25.485c2.059 1.61 2.53 4.534 1.082 6.71l-38.02 57.105c-1.53 2.299-4.635 2.921-6.933 1.391-.385-.256-.732-.564-1.032-.916l-21.696-25.415c-1.28-1.499-1.56-3.609-.715-5.39zm32.915 34.857l36.25-52.22c1.574-2.27 4.69-2.832 6.958-1.257.172.12.337.25.494.39l31.635 28.472c2.053 1.848 2.219 5.009.372 7.062-.414.46-.91.839-1.463 1.118l-64.731 32.688-9.11-10.043c-1.564-1.723-1.732-4.298-.405-6.21zm73.269-191.069l15.543-65.833c.635-2.687 3.328-4.351 6.015-3.717.032.008.064.015.095.024l45.37 11.65c2.675.687 4.286 3.412 3.6 6.087-.144.556-.382 1.084-.704 1.56l-47.745 70.476-20.291-15.085c-1.602-1.191-2.342-3.22-1.883-5.162zm-26.657 129.2l24.505-43.21c1.362-2.401 4.414-3.244 6.816-1.882.242.137.472.294.687.47l22.85 18.572c2.143 1.742 2.467 4.891.726 7.034l-.003.002-34.219 42.029-20.198-16.695c-1.87-1.545-2.36-4.21-1.164-6.32zm29.147-55.485l22.362-38.3c1.393-2.384 4.455-3.189 6.84-1.796.157.092.31.193.457.302l33.637 24.954c2.218 1.645 2.682 4.777 1.037 6.995-.06.08-.123.16-.188.238l-32.46 38.618-30.505-24.598c-1.925-1.552-2.426-4.278-1.18-6.413zm25.243-53.009l29.721-41.88c1.565-2.206 4.6-2.767 6.85-1.267l45.625 30.41c2.297 1.532 2.919 4.636 1.387 6.934-.12.181-.253.354-.396.518l-37.668 43.082-44.295-30.798c-2.268-1.576-2.828-4.692-1.251-6.96l.027-.039zm36.374-52.608l13.613-20.698c1.183-1.8 3.386-2.639 5.467-2.083l79.261 21.157c2.668.712 4.254 3.452 3.542 6.12-.284 1.062-.908 2-1.778 2.67l-43.943 33.877-54.63-34.052c-2.343-1.46-3.058-4.545-1.597-6.888l.065-.103zm-62.638 184.77l101.197-122.665c1.758-2.13 4.91-2.432 7.04-.675 1.014.837 1.658 2.04 1.791 3.349l7.845 76.827c.209 2.046-.857 4.011-2.685 4.953l-105.269 54.213-9.538-9.227c-1.875-1.814-2.04-4.764-.38-6.776zM1636.967 479.3l65.285-49.008c2.209-1.658 5.343-1.211 7 .997.617.822.966 1.813 1 2.84l3.099 95.706c.06 1.878-.937 3.632-2.582 4.54l-67.159 37.053-8.617-87.64c-.17-1.738.577-3.44 1.974-4.488zm107.639-36.045l33.956 10.226c1.89.57 3.268 2.197 3.518 4.155l4.402 34.496c.269 2.101-.816 4.144-2.708 5.097l-43.218 21.794-2.39-70.811c-.092-2.76 2.07-5.073 4.83-5.166.544-.018 1.088.052 1.61.21zm49.095 13.297l51.816 10.782-54.165 26.578-3.637-31.899c-.313-2.743 1.657-5.221 4.4-5.534.53-.06 1.065-.036 1.586.073zm-530.295 245.409l85.098 17.22c1.624.33 2.674 1.912 2.345 3.536-.186.923-.795 1.704-1.644 2.111l-53.076 25.419c-2.203 1.055-4.845.364-6.25-1.634l-29.522-41.986c-.953-1.355-.627-3.227.729-4.18.673-.474 1.513-.65 2.32-.486zm93.7-35.633l47.385 29.535c1.406.876 1.835 2.727.959 4.133-.631 1.012-1.802 1.555-2.983 1.381l-91.97-13.533c-1.092-.161-1.848-1.177-1.687-2.27.103-.703.571-1.297 1.23-1.563l44.355-17.918c.89-.36 1.897-.272 2.71.235zM1168.72 785.803l47.498-17.334c2.594-.946 5.465.39 6.411 2.983.029.078.055.156.08.235l3.86 12.458-55.903 28.888-5.095-21.373c-.589-2.469.765-4.987 3.15-5.857zm69.558-14.083l39.034-19.273c2.476-1.222 5.474-.206 6.697 2.27.048.097.093.197.135.297l.476 1.15-47.517 25.616-1.346-3.97c-.806-2.376.273-4.98 2.521-6.09zm-320.815 59.361l34.463-3.805c2.744-.303 5.215 1.676 5.518 4.421.08.73 0 1.468-.237 2.163l-10.47 30.697c-.647 1.896-2.364 3.223-4.362 3.372l-33.348 2.484c-2.754.205-5.152-1.861-5.357-4.615-.048-.638.027-1.28.222-1.889l9.356-29.375c.6-1.883 2.251-3.236 4.215-3.453zM963 643.338l195.721 35.445c2.718.492 4.522 3.093 4.03 5.81-.323 1.783-1.585 3.251-3.298 3.84L933.83 765.84c-2.612.896-5.456-.495-6.352-3.107-.321-.936-.357-1.946-.104-2.903l29.903-112.853c.668-2.52 3.159-4.104 5.724-3.64zm-.66-119.575l-23.886 75.448c-.766 2.421-3.225 3.883-5.718 3.4l-56.615-10.975c-2.477-.48-4.209-2.732-4.037-5.25l4.37-63.904 80.797-5.217c2.756-.178 5.134 1.911 5.312 4.667.04.619-.036 1.24-.223 1.831zm77.466-303.028l-23.174 77.807c-.543 1.823-2.072 3.18-3.947 3.501l-50.586 8.678c-2.722.467-5.307-1.36-5.774-4.082-.022-.13-.039-.26-.05-.392l-6.4-70.24c-.231-2.54 1.487-4.847 3.987-5.354l80.159-16.245c2.706-.549 5.345 1.2 5.893 3.907.163.804.126 1.635-.108 2.42zm-95.931 18.879l6.623 66.39c.236 2.373-1.236 4.583-3.517 5.278l-79.942 24.381c-2.641.806-5.435-.682-6.24-3.323-.1-.328-.167-.665-.198-1.005l-6.355-69.761c-.221-2.43 1.345-4.666 3.705-5.288l79.673-21.01c2.67-.705 5.406.889 6.11 3.56.067.254.114.515.14.778zm71.424 78.035l-47.748 184.61c-.533 2.06-2.31 3.558-4.431 3.732l-81.434 6.694c-2.752.227-5.166-1.821-5.392-4.573-.004-.048-.008-.095-.01-.143l-8.145-152.311c-.281-5.27 3.22-9.998 8.343-11.265l132.776-32.85c2.68-.663 5.391.972 6.054 3.653.2.806.195 1.649-.013 2.453zm-49.314 477.466l-7.183 23.721c-.6 1.978-2.353 3.384-4.414 3.537l-32.932 2.453c-2.754.205-5.153-1.861-5.358-4.615-.052-.698.043-1.399.28-2.057l2.328-6.503 47.28-16.536zm-142.597 58.73l54.274-24.237c2.522-1.126 5.478.005 6.604 2.527.48 1.072.565 2.279.244 3.408l-15.121 53.09c-.645 2.262-2.779 3.77-5.126 3.62l-32.802-2.083c-2.194-.14-4.04-1.696-4.548-3.836l-6.352-26.77c-.554-2.338.633-4.74 2.827-5.72zm8.616 41.853l28.343.602c2.761.06 4.952 2.345 4.893 5.106-.003.154-.014.308-.031.461l-2.696 23.576c-.296 2.592-2.535 4.52-5.142 4.43l-21.863-.763c-1.508-.052-2.742-1.217-2.882-2.72l-2.656-28.507c-.102-1.1.706-2.075 1.806-2.177.076-.007.152-.01.228-.008zm.744 40.133l27.661-2.367c2.752-.235 5.173 1.804 5.408 4.555.047.543.004 1.088-.125 1.617l-3.9 15.919c-.423 1.723-1.727 3.093-3.427 3.6l-21.9 6.538c-1.588.474-3.26-.43-3.733-2.017-.064-.213-.104-.433-.119-.656l-1.69-25.061c-.074-1.089.738-2.035 1.825-2.128zm-50.93-13.87l39.264 8.722c1.997.444 3.523 2.06 3.851 4.078l1.849 11.361c.444 2.726-1.406 5.295-4.132 5.738-.743.121-1.504.073-2.226-.142l-37.46-11.123c-2.122-.63-3.577-2.579-3.578-4.792l-.003-11.889c0-1.104.895-2 2-2 .146 0 .292.016.434.047zm0 22.783l39.264 8.722c1.997.444 3.523 2.06 3.851 4.078l1.849 11.361c.444 2.726-1.406 5.295-4.132 5.738-.743.121-1.504.073-2.226-.142l-37.46-11.123c-2.122-.63-3.577-2.58-3.578-4.792l-.003-11.889c0-1.104.895-2 2-2 .146 0 .292.016.434.047zM119.575 660.952l70.865-23.075 24.287 17.324.061.045 21.277 15.668 45.552 103.574c1.111 2.528-.037 5.478-2.564 6.59-.166.073-.336.137-.51.192L169.77 815.573c-2.617.825-5.41-.613-6.259-3.223l-47.14-145.096c-.854-2.625.582-5.445 3.206-6.3v-.002zm-11.699-145.708l238.146-103.96c2.53-1.105 5.478.05 6.583 2.582.192.44.32.905.379 1.382l18.844 151.16c.33 2.649-1.479 5.09-4.11 5.545l-148.634 25.703c-1.269.22-2.574-.059-3.643-.778l-108.356-72.903c-2.29-1.542-2.898-4.649-1.357-6.94.531-.79 1.276-1.41 2.148-1.791zm-30.994-69.62l61.446-27.216c2.525-1.118 5.478.022 6.597 2.547.142.322.25.659.323 1.003l11.4 54.64c.475 2.275-.68 4.578-2.788 5.557l-49.228 22.855c-2.497 1.16-5.461.083-6.631-2.409l-23.62-50.28c-1.174-2.5-.1-5.478 2.4-6.652l.101-.046zm79.321-31.774l30.384-15.464c2.371-1.207 5.273-.345 6.6 1.961l26.803 46.547c1.378 2.393.555 5.45-1.838 6.828-.126.073-.256.14-.39.202l-46.629 21.65c-2.504 1.162-5.477.074-6.64-2.43-.167-.36-.29-.736-.368-1.124l-10.557-52.733c-.44-2.198.637-4.42 2.635-5.437zm45.167-23.596l61.624-29.164c2.496-1.181 5.477-.115 6.658 2.38.102.216.189.44.26.668l16.774 54.46c.736 2.39-.405 4.955-2.673 6.007l-49.316 22.897c-2.315 1.075-5.068.234-6.387-1.951l-29.082-48.194c-1.427-2.364-.667-5.438 1.698-6.864.144-.087.292-.167.444-.239zm79.155-35.582l43.114-21.483c2.472-1.231 5.474-.226 6.706 2.246l.054.112 23.757 50.821c1.165 2.491.099 5.455-2.385 6.634l-51.356 24.38c-2.494 1.183-5.477.121-6.66-2.374-.117-.244-.213-.497-.288-.756l-15.515-53.717c-.67-2.32.413-4.786 2.573-5.863zm-39.407 253.96l56.162-10.326c1.953-.36 3.934.472 5.046 2.117l52.637 77.857-104.795-50.796-11.468-10.198c-2.064-1.835-2.249-4.996-.414-7.059.74-.832 1.737-1.394 2.832-1.595zm75.872-15.833l187.627-37.817c2.667-.537 5.274 1.156 5.867 3.811l17.296 77.402-133.16 80.76-80.75-116.405c-1.574-2.269-1.01-5.384 1.258-6.958.56-.388 1.194-.658 1.862-.793zm-312.604-76.8l82.416-25.991 7.978 77.1 80.724 60.632c2.208 1.658 2.653 4.793.995 7-.632.841-1.512 1.462-2.517 1.773L53.702 673.821c-2.634.816-5.431-.653-6.254-3.285L1.118 522.258c-.822-2.63.64-5.43 3.269-6.26zm457.911 253.684l130.25 6.335 30.838 85.956c.932 2.6-.419 5.463-3.018 6.395l-.134.046-26.368 8.625c-1.55.506-3.249.226-4.553-.751l-130.256-97.61c-2.21-1.657-2.659-4.79-1.003-7 .996-1.329 2.586-2.077 4.244-1.996zm166.494 51.57l71.225-4.15 10.919 11.77c1.878 2.025 1.759 5.188-.265 7.066-.545.505-1.195.883-1.904 1.105l-68.034 21.353c-2.54.797-5.26-.536-6.185-3.032l-10.153-27.382c-.96-2.589.36-5.466 2.95-6.426.465-.172.953-.275 1.447-.303zm70.897-25.53l55.37-21.022-1.156 45.247c-.056 2.18-1.518 4.072-3.613 4.676l-24.188 6.974c-1.859.536-3.86-.048-5.138-1.499l-23.252-26.396c-1.826-2.073-1.626-5.232.446-7.057.451-.397.97-.71 1.53-.923zm-439.061-103.37l29.55 21.877 53.503 39.64c2.22 1.645 2.685 4.776 1.041 6.995-.665.897-1.61 1.546-2.687 1.843l-40.16 11.08c-2.379.657-4.88-.52-5.891-2.77l-35.356-78.664zM89.376 672.606l14.06-3.926c2.582-.721 5.273.721 6.1 3.27l47.129 145.045c.853 2.627-.584 5.447-3.21 6.3-.067.022-.133.042-.2.061l-14.06 3.927c-2.582.72-5.273-.722-6.101-3.271L85.966 678.966c-.853-2.626.584-5.447 3.21-6.3.067-.022.133-.042.2-.06zm-30.351 12.15l14.06-3.926c2.582-.72 5.272.722 6.1 3.271l47.128 145.045c.854 2.627-.583 5.447-3.21 6.3-.066.022-.133.042-.2.061l-14.06 3.927c-2.582.72-5.272-.722-6.1-3.271L55.615 691.117c-.854-2.626.584-5.447 3.21-6.3.066-.022.133-.042.2-.061z" transform="matrix(1 0 0 -1 -207 946)"/>
                    <path fill="url(#prefix__d)" d="M364.604 410.32l68.091-35.869c2.444-1.287 5.467-.35 6.754 2.094.083.157.158.32.224.485l62.149 156.558c1.019 2.566-.236 5.473-2.803 6.492-.258.103-.525.184-.797.242l-110.274 23.615c-2.7.578-5.358-1.142-5.936-3.843-.026-.12-.047-.24-.064-.361l-19.967-144.304c-.289-2.085.76-4.128 2.623-5.109z" transform="matrix(1 0 0 -1 -207 946)"/>
                    <path fill="url(#prefix__e)" d="M406.956 721.078l127.729-81.38c2.269-1.446 5.275-.837 6.803 1.377l78.067 113.2c1.568 2.274.996 5.388-1.277 6.955-.892.616-1.96.924-3.043.88l-169.125-6.907c-.932-.038-1.835-.336-2.606-.86l-36.67-24.912c-2.285-1.552-2.879-4.662-1.327-6.946.382-.562.876-1.041 1.45-1.407z" transform="matrix(1 0 0 -1 -207 946)"/>
                    <path fill="url(#prefix__f)" d="M609.676 773.816l71.176-16.734c2.688-.632 5.38 1.035 6.012 3.723.05.215.086.433.108.652l4.067 41.108c.272 2.748-1.735 5.196-4.483 5.468l-.02.002-62.39 5.93c-2.171.206-4.225-1.018-5.077-3.026l-12.852-30.303c-1.078-2.543.11-5.477 2.651-6.556.262-.11.532-.199.808-.264z" transform="matrix(1 0 0 -1 -207 946)"/>
                    <path fill="url(#prefix__g)" d="M690.975 591.044l146.172 26.55c2.311.42 4.018 2.392 4.104 4.74l3.656 100.879c.076 2.101-1.17 4.026-3.12 4.815L703.824 783.92c-2.56 1.037-5.475-.197-6.512-2.757-.2-.496-.32-1.02-.355-1.554l-11.864-183.322c-.178-2.756 1.911-5.135 4.667-5.313.407-.026.815-.003 1.216.07z" transform="matrix(1 0 0 -1 -207 946)"/>
                    <path fill="url(#prefix__e)" d="M557.006 633.502l112.55-40.271c2.6-.93 5.463.423 6.393 3.023.163.455.259.931.285 1.414l7.875 145.224c.135 2.476-1.566 4.676-3.996 5.17l-43.485 8.846c-1.98.403-4.007-.425-5.139-2.099l-76.94-113.798c-1.547-2.288-.947-5.396 1.341-6.943.347-.234.722-.425 1.116-.566z" transform="matrix(1 0 0 -1 -207 946)"/>
                    <path fill="url(#prefix__h)" d="M523.892 553.662l36.359-7.568c.821-.171 1.673-.133 2.476.112l102.593 31.25c2.642.805 4.131 3.598 3.326 6.24-.459 1.507-1.601 2.71-3.083 3.245l-121.384 43.89c-2.597.938-5.463-.406-6.402-3.003-.053-.145-.098-.292-.137-.442l-17.569-67.571c-.694-2.673.909-5.402 3.581-6.097.08-.021.16-.04.24-.056z" transform="matrix(1 0 0 -1 -207 946)"/>
                    <path fill="url(#prefix__i)" d="M584.338 461.965l81.361 11.5c2.601.367 4.474 2.685 4.288 5.305l-5.967 83.75c-.197 2.755-2.589 4.828-5.343 4.632-.453-.032-.9-.126-1.328-.279l-80.048-28.612c-2.11-.755-3.461-2.821-3.305-5.057l4.654-66.637c.193-2.754 2.582-4.832 5.337-4.64.117.009.234.021.351.038z" transform="matrix(1 0 0 -1 -207 946)"/>
                    <path fill="url(#prefix__j)" d="M783.482 478.35l77.44-2.45c2.76-.087 5.068 2.08 5.155 4.84.005.156.003.312-.007.468l-6.279 101.159c-.17 2.756-2.544 4.852-5.3 4.68-.21-.012-.418-.039-.625-.078l-76.851-14.62c-2.485-.473-4.225-2.727-4.055-5.25l5.692-84.089c.173-2.563 2.262-4.578 4.83-4.66z" transform="matrix(1 0 0 -1 -207 946)"/>
                    <path fill="url(#prefix__k)" d="M687.634 439.041l53.508-.165c2.761-.009 5.007 2.223 5.016 4.984 0 .117-.004.234-.012.35l-9.476 141.203c-.185 2.756-2.569 4.84-5.324 4.654-.147-.01-.294-.026-.44-.049l-53.818-8.444c-2.571-.403-4.403-2.712-4.211-5.308l9.786-132.593c.192-2.605 2.358-4.623 4.97-4.632z" transform="matrix(1 0 0 -1 -207 946)"/>
                    <path fill="url(#prefix__l)" d="M588.155 387.26l82.947 38.547c1.861.865 3.005 2.78 2.884 4.828l-1.749 29.684c-.162 2.757-2.529 4.86-5.285 4.697-.129-.007-.256-.02-.384-.037l-81.17-11.097c-2.475-.338-4.32-2.452-4.322-4.951l-.028-57.135c-.002-2.761 2.236-5 4.997-5.002.729 0 1.449.158 2.11.466z" transform="matrix(1 0 0 -1 -207 946)"/>
                    <path fill="url(#prefix__m)" d="M583.177 328.017l68.696 18.545c1.843.497 3.243 2.002 3.606 3.877l10.62 54.889c.524 2.71-1.248 5.334-3.96 5.858-1.007.195-2.05.076-2.986-.342l-74.41-33.195c-1.603-.715-2.713-2.219-2.926-3.961l-4.906-40.238c-.335-2.741 1.616-5.234 4.358-5.569.638-.077 1.286-.031 1.908.136z" transform="matrix(1 0 0 -1 -207 946)"/>
                    <path fill="url(#prefix__n)" d="M754.048 264.253l-3.928 38.765c-.188 1.853-1.39 3.448-3.119 4.139l-83.843 33.522c-.973.39-2.044.463-3.062.21l-76.94-19.114c-1.072-.266-1.725-1.351-1.458-2.423.16-.65.636-1.175 1.266-1.4l164.423-58.91c2.6-.931 5.462.42 6.394 3.02.25.702.342 1.45.267 2.191z" transform="matrix(1 0 0 -1 -207 946)"/>
                    <path fill="url(#prefix__o)" d="M668.211 347.17l77.094-30.11c2.572-1.005 5.472.266 6.477 2.838.262.672.376 1.393.334 2.114l-6.208 105.29c-.16 2.723-2.476 4.816-5.203 4.7l-55.197-2.332c-2.274-.096-4.197-1.717-4.676-3.943l-15.69-72.846c-.516-2.399.784-4.818 3.07-5.71z" transform="matrix(1 0 0 -1 -207 946)"/>
                    <path fill="url(#prefix__p)" d="M792.77 251.045l47.311-.014c2.56 0 4.707 1.932 4.974 4.478l12.996 123.805c.26 2.472-1.336 4.758-3.745 5.369l-68.068 17.252c-2.677.678-5.397-.942-6.075-3.618-.125-.491-.174-.998-.146-1.504l7.762-141.043c.145-2.65 2.336-4.724 4.99-4.725z" transform="matrix(1 0 0 -1 -207 946)"/>
                    <path fill="url(#prefix__q)" d="M806.878 399.976l45.068-8.966c2.708-.539 5.34 1.22 5.88 3.928.048.244.078.49.09.738l3.09 65.02c.13 2.758-2 5.1-4.758 5.232-.074.003-.148.005-.222.005l-24.582.072c-2.019.006-3.843-1.203-4.625-3.064l-23.576-56.125c-1.069-2.546.128-5.477 2.674-6.546.31-.13.631-.229.96-.294z" transform="matrix(1 0 0 -1 -207 946)"/>
                    <path fill="url(#prefix__r)" d="M782.983 409.322l7.105-1.332c2.418-.454 4.808.92 5.633 3.239l17.06 47.976c.925 2.602-.434 5.46-3.036 6.386-.359.127-.73.214-1.108.257l-28.156 3.215c-2.744.314-5.222-1.656-5.535-4.4-.037-.32-.042-.644-.017-.966l3.992-49.86c.18-2.249 1.844-4.098 4.062-4.515z" transform="matrix(1 0 0 -1 -207 946)"/>
                    <path fill="url(#prefix__s)" d="M459.165 369.713l102.076-38.597c2.583-.976 5.468.326 6.445 2.909.214.565.323 1.165.323 1.77l-.025 85.061-.03 102.045c-.001 2.5-1.847 4.614-4.324 4.953l-45.117 6.165c-2.325.318-4.559-1.025-5.37-3.228l-56.902-154.675c-.947-2.575.358-5.433 2.924-6.403z" transform="matrix(1 0 0 -1 -207 946)"/>
                    <path fill="url(#prefix__t)" d="M859.177 620.023l81.141 20.862c2.597.667 4.205 3.264 3.645 5.887l-10.926 51.16c-.371 1.736-1.634 3.145-3.32 3.702l-67.093 22.201c-2.622.868-5.45-.554-6.318-3.176-.15-.454-.234-.927-.25-1.405l-3.12-94.223c-.092-2.76 2.071-5.07 4.83-5.162.476-.016.951.036 1.411.154z" transform="matrix(1 0 0 -1 -207 946)"/>
                    <path fill="url(#prefix__u)" d="M764.095 772.239l40.36-16.964c1.804-.758 3.885-.394 5.325.932l31.887 29.374c2.03 1.871 2.16 5.035.29 7.066-.598.648-1.356 1.127-2.198 1.388l-70.856 21.963c-2.638.818-5.439-.658-6.257-3.296-.128-.414-.202-.844-.22-1.278l-1.39-34.374c-.083-2.084 1.136-4.002 3.06-4.811z" transform="matrix(1 0 0 -1 -207 946)"/>
                    <path fill="url(#prefix__v)" d="M822.904 747.485l98.436-37.36c2.582-.98 5.469.318 6.449 2.9.325.856.408 1.784.241 2.685l-8.533 46.052c-.325 1.756-1.562 3.205-3.244 3.802l-59.734 21.196c-1.81.642-3.827.19-5.191-1.16l-30.169-29.888c-1.962-1.944-1.976-5.11-.033-7.071.503-.508 1.11-.902 1.778-1.156z" transform="matrix(1 0 0 -1 -207 946)"/>
                </g>
            </g>
        </g>
        <path fill="url(#prefix__w)" d="M34 0H1954V738H34z"/>
        <path stroke="url(#prefix__x)" stroke-linecap="square" stroke-width="10" d="M0 339.718L409.87 44 1057.866 264.076 1237.977 231.475 1549 403.807 1549 520.433 1492.073 535.205" opacity=".605"/>
        <circle cx="1477" cy="538" r="27" fill="#25CEB4" opacity=".392"/>
        <circle cx="1477" cy="539" r="16" fill="#016FF5"/>
    </g>
</svg>
